<svg width="83" height="88" viewBox="0 0 83 88" fill="none" xmlns="http://www.w3.org/2000/svg">
<ellipse cx="41.5" cy="44" rx="41.5" ry="44" fill="#12372A"/>
<path d="M42.5001 21.417C39.6001 21.417 36.7284 21.9882 34.0492 23.098C31.3699 24.2078 28.9354 25.8344 26.8848 27.8851C22.7434 32.0265 20.4167 37.6435 20.4167 43.5003C20.4167 49.3572 22.7434 54.9742 26.8848 59.1156C28.9354 61.1662 31.3699 62.7929 34.0492 63.9027C36.7284 65.0125 39.6001 65.5837 42.5001 65.5837C48.3569 65.5837 53.9739 63.257 58.1154 59.1156C62.2568 54.9742 64.5834 49.3572 64.5834 43.5003C64.5834 40.6003 64.0122 37.7287 62.9024 35.0494C61.7926 32.3701 60.166 29.9357 58.1154 27.8851C56.0647 25.8344 53.6303 24.2078 50.951 23.098C48.2717 21.9882 45.4001 21.417 42.5001 21.417ZM51.7751 52.7753L40.2917 45.7087V32.4587H43.6042V43.942L53.5418 49.9045L51.7751 52.7753Z" fill="#F1C30C"/>
</svg>
