<svg width="83" height="83" viewBox="0 0 83 83" fill="none" xmlns="http://www.w3.org/2000/svg">
<circle cx="41.5" cy="41.5" r="41.5" fill="#12372A"/>
<path fill-rule="evenodd" clip-rule="evenodd" d="M29.5 31.667C29.5 28.3518 30.817 25.1724 33.1612 22.8282C35.5054 20.484 38.6848 19.167 42 19.167C45.3152 19.167 48.4946 20.484 50.8388 22.8282C53.183 25.1724 54.5 28.3518 54.5 31.667H56.5833C57.6884 31.667 58.7482 32.106 59.5296 32.8874C60.311 33.6688 60.75 34.7286 60.75 35.8337V56.667C60.75 57.7721 60.311 58.8319 59.5296 59.6133C58.7482 60.3947 57.6884 60.8337 56.5833 60.8337H27.4167C26.3116 60.8337 25.2518 60.3947 24.4704 59.6133C23.689 58.8319 23.25 57.7721 23.25 56.667V35.8337C23.25 34.7286 23.689 33.6688 24.4704 32.8874C25.2518 32.106 26.3116 31.667 27.4167 31.667H29.5ZM42 23.3337C44.2101 23.3337 46.3298 24.2116 47.8926 25.7744C49.4554 27.3372 50.3333 29.4569 50.3333 31.667H33.6667C33.6667 29.4569 34.5446 27.3372 36.1074 25.7744C37.6702 24.2116 39.7899 23.3337 42 23.3337ZM46.1667 44.167C46.1666 44.8984 45.9741 45.6169 45.6084 46.2503C45.2427 46.8837 44.7167 47.4096 44.0833 47.7753V50.417C44.0833 50.9695 43.8638 51.4994 43.4731 51.8901C43.0824 52.2808 42.5525 52.5003 42 52.5003C41.4475 52.5003 40.9176 52.2808 40.5269 51.8901C40.1362 51.4994 39.9167 50.9695 39.9167 50.417V47.7753C39.1224 47.3167 38.5016 46.6088 38.1506 45.7614C37.7997 44.914 37.7381 43.9745 37.9755 43.0886C38.2129 42.2026 38.736 41.4198 39.4636 40.8614C40.1913 40.303 41.0828 40.0004 42 40.0003C43.1051 40.0003 44.1649 40.4393 44.9463 41.2207C45.7277 42.0021 46.1667 43.0619 46.1667 44.167Z" fill="#F1C30C"/>
</svg>
